<?xml version="1.0" standalone="no"?>
<!DOCTYPE svg PUBLIC "-//W3C//DTD SVG 20010904//EN"
 "http://www.w3.org/TR/2001/REC-SVG-20010904/DTD/svg10.dtd">
<svg version="1.0" xmlns="http://www.w3.org/2000/svg"
 width="933.000000pt" height="1280.000000pt" viewBox="0 0 933.000000 1280.000000"
 preserveAspectRatio="xMidYMid meet">
<g transform="translate(0.000000,1280.000000) scale(0.100000,-0.100000)"
fill="#cccccc" stroke="none">
<path d="M3140 12010 c-319 -423 -583 -776 -586 -783 -4 -11 192 -99 768 -346
425 -182 778 -331 783 -331 10 0 884 1460 892 1490 3 12 -147 103 -625 378
-346 199 -634 362 -640 362 -6 0 -272 -346 -592 -770z"/>
<path d="M4757 11230 c-251 -390 -458 -714 -459 -720 -2 -6 240 -147 537 -313
472 -264 540 -305 543 -327 1 -14 -31 -191 -72 -395 -41 -203 -73 -371 -71
-373 2 -2 128 80 280 181 l277 185 514 738 c400 576 511 741 501 751 -16 15
-1577 983 -1586 983 -3 0 -212 -319 -464 -710z"/>
<path d="M1258 9817 c-499 -738 -984 -1455 -1077 -1594 l-171 -251 1441 -2073
1441 -2072 -10 -86 c-11 -87 -430 -3392 -457 -3599 -8 -62 -15 -120 -15 -128
0 -12 299 -14 2304 -14 l2304 0 6 123 c3 67 11 248 16 402 6 154 19 523 30
820 11 297 29 790 40 1095 11 305 25 676 31 825 l11 270 52 65 c29 36 221 270
426 520 204 250 378 464 385 475 7 11 47 187 89 390 66 326 394 1926 444 2173
11 50 16 92 12 92 -4 0 -326 -283 -716 -630 -390 -346 -713 -630 -717 -630 -5
0 -225 210 -489 468 -264 257 -505 489 -536 517 l-55 49 -451 97 c-1207 258
-1466 312 -1472 307 -3 -4 255 -323 574 -711 319 -388 585 -713 590 -723 5
-11 152 -396 326 -857 174 -461 319 -844 323 -852 5 -7 77 -88 161 -181 84
-92 151 -174 150 -182 -2 -8 -115 -71 -253 -141 l-250 -126 3 -335 c2 -184 7
-634 12 -1000 13 -895 13 -1287 0 -1274 -6 6 -103 665 -216 1465 -113 800
-208 1457 -212 1461 -4 3 -151 20 -326 37 -295 28 -360 40 -330 59 6 4 204
131 439 282 235 151 430 280 432 287 6 16 -1973 3050 -2001 3068 -12 8 -320
132 -686 276 -366 144 -671 268 -679 275 -13 12 -2 19 70 53 46 21 127 59 179
83 l95 45 136 214 c75 118 139 219 142 224 3 6 -15 109 -39 230 -47 232 -50
255 -34 255 5 0 193 -169 417 -376 223 -207 412 -378 418 -380 14 -6 1435 341
1445 353 8 9 164 852 159 857 -12 11 -2978 1346 -2990 1346 -8 -1 -422 -605
-921 -1343z"/>
<path d="M5810 9155 c-511 -767 -930 -1398 -930 -1403 0 -11 1263 -610 1275
-605 12 6 1983 2424 1986 2438 2 7 -1384 964 -1398 965 -2 0 -421 -628 -933
-1395z"/>
<path d="M7295 8210 c-561 -676 -1021 -1233 -1023 -1238 -3 -9 833 -755 852
-760 17 -4 2181 1941 2180 1960 -2 19 -965 1267 -979 1267 -5 0 -469 -553
-1030 -1229z"/>
<path d="M4240 8404 c-366 -106 -676 -196 -689 -199 -14 -4 -20 -10 -15 -15
14 -13 837 -482 855 -487 12 -3 81 107 277 442 144 246 262 449 262 451 0 9
-43 -3 -690 -192z"/>
</g>
</svg>
