<?xml version="1.0" standalone="no"?>
<!DOCTYPE svg PUBLIC "-//W3C//DTD SVG 20010904//EN"
 "http://www.w3.org/TR/2001/REC-SVG-20010904/DTD/svg10.dtd">
<svg version="1.0" xmlns="http://www.w3.org/2000/svg"
 width="920.000000pt" height="1280.000000pt" viewBox="0 0 920.000000 1280.000000"
 preserveAspectRatio="xMidYMid meet">
<metadata>
Created by potrace 1.15, written by Peter Selinger 2001-2017
</metadata>
<g transform="translate(0.000000,1280.000000) scale(0.100000,-0.100000)"
fill="#bbbbbb" stroke="none">
<path d="M542 12785 c-167 -37 -427 -225 -501 -365 -41 -77 -49 -145 -28 -237
9 -37 21 -102 28 -143 6 -41 31 -136 55 -210 52 -164 70 -236 79 -315 11 -100
34 -203 76 -335 21 -69 46 -164 54 -213 19 -111 61 -242 140 -438 34 -86 70
-188 79 -227 28 -124 56 -369 96 -832 6 -69 15 -172 20 -230 5 -58 14 -161 20
-230 6 -69 15 -168 20 -220 5 -52 14 -156 20 -230 6 -74 15 -169 20 -210 12
-97 25 -203 50 -420 12 -96 25 -209 31 -250 9 -64 62 -279 129 -520 10 -36 39
-143 64 -237 25 -95 67 -251 92 -345 25 -95 54 -202 64 -238 10 -36 55 -202
100 -370 276 -1022 557 -2038 661 -2385 40 -132 87 -294 106 -360 92 -328 160
-816 178 -1270 4 -88 13 -194 20 -235 29 -151 78 -608 125 -1160 6 -69 14
-217 18 -330 5 -113 11 -211 15 -217 6 -9 809 -11 3350 -9 2970 3 3346 5 3377
18 19 9 50 31 68 51 l34 35 -7 995 -8 995 -196 95 c-429 209 -883 368 -1156
403 -66 9 -138 23 -160 33 -60 27 -253 181 -339 271 -130 137 -186 242 -186
353 0 80 26 127 103 185 71 54 112 107 176 232 64 125 95 214 136 390 18 80
49 184 68 230 20 47 48 114 63 150 26 63 27 69 21 205 -6 148 -27 272 -76 440
-32 113 -45 189 -61 355 -17 184 -62 341 -149 523 -35 73 -50 93 -95 126 -45
34 -60 54 -95 126 -48 102 -81 152 -167 256 -99 119 -134 142 -362 241 -114
49 -225 99 -247 112 -46 27 -230 74 -420 107 -300 53 -963 12 -1309 -81 -193
-51 -287 -103 -483 -264 -222 -184 -694 -680 -718 -755 -3 -12 -11 -21 -16
-21 -16 0 -63 83 -139 247 -188 407 -233 492 -349 646 -126 169 -246 348 -290
434 -30 59 -218 466 -338 733 -115 256 -224 511 -248 584 -68 202 -343 1244
-434 1646 -45 197 -80 328 -100 371 -43 95 -65 215 -57 310 16 196 95 531 206
874 101 311 109 340 120 432 20 159 -20 284 -120 376 -80 75 -151 108 -402
191 -395 131 -644 170 -826 131z"/>
</g>
</svg>
